<svg id="visual" viewBox="0 0 1920 1080" width="1920" height="1080" xmlns="http://www.w3.org/2000/svg" xmlns:xlink="http://www.w3.org/1999/xlink" version="1.1"><path d="M0 185L29.2 165.2C58.3 145.3 116.7 105.7 174.8 96.7C233 87.7 291 109.3 349.2 125.5C407.3 141.7 465.7 152.3 523.8 141.5C582 130.7 640 98.3 698.2 93C756.3 87.7 814.7 109.3 872.8 129.2C931 149 989 167 1047.2 163.3C1105.3 159.7 1163.7 134.3 1221.8 130.7C1280 127 1338 145 1396.2 152.2C1454.3 159.3 1512.7 155.7 1570.8 146.7C1629 137.7 1687 123.3 1745.2 123.3C1803.3 123.3 1861.7 137.7 1890.8 144.8L1920 152L1920 0L1890.8 0C1861.7 0 1803.3 0 1745.2 0C1687 0 1629 0 1570.8 0C1512.7 0 1454.3 0 1396.2 0C1338 0 1280 0 1221.8 0C1163.7 0 1105.3 0 1047.2 0C989 0 931 0 872.8 0C814.7 0 756.3 0 698.2 0C640 0 582 0 523.8 0C465.7 0 407.3 0 349.2 0C291 0 233 0 174.8 0C116.7 0 58.3 0 29.2 0L0 0Z" fill="#88b2f1"></path><path d="M0 455L29.2 433.3C58.3 411.7 116.7 368.3 174.8 361C233 353.7 291 382.3 349.2 418.3C407.3 454.3 465.7 497.7 523.8 490.5C582 483.3 640 425.7 698.2 384.3C756.3 343 814.7 318 872.8 341.5C931 365 989 437 1047.2 455C1105.3 473 1163.7 437 1221.8 406.3C1280 375.7 1338 350.3 1396.2 350.3C1454.3 350.3 1512.7 375.7 1570.8 388.3C1629 401 1687 401 1745.2 393.7C1803.3 386.3 1861.7 371.7 1890.8 364.3L1920 357L1920 150L1890.8 142.8C1861.7 135.7 1803.3 121.3 1745.2 121.3C1687 121.3 1629 135.7 1570.8 144.7C1512.7 153.7 1454.3 157.3 1396.2 150.2C1338 143 1280 125 1221.8 128.7C1163.7 132.3 1105.3 157.7 1047.2 161.3C989 165 931 147 872.8 127.2C814.7 107.3 756.3 85.7 698.2 91C640 96.3 582 128.7 523.8 139.5C465.7 150.3 407.3 139.7 349.2 123.5C291 107.3 233 85.7 174.8 94.7C116.7 103.7 58.3 143.3 29.2 163.2L0 183Z" fill="#6ea1ed"></path><path d="M0 789L29.2 774.7C58.3 760.3 116.7 731.7 174.8 728.2C233 724.7 291 746.3 349.2 760.7C407.3 775 465.7 782 523.8 780.2C582 778.3 640 767.7 698.2 740.7C756.3 713.7 814.7 670.3 872.8 663.2C931 656 989 685 1047.2 703C1105.3 721 1163.7 728 1221.8 731.5C1280 735 1338 735 1396.2 733.3C1454.3 731.7 1512.7 728.3 1570.8 741C1629 753.7 1687 782.3 1745.2 791.3C1803.3 800.3 1861.7 789.7 1890.8 784.3L1920 779L1920 355L1890.8 362.3C1861.7 369.7 1803.3 384.3 1745.2 391.7C1687 399 1629 399 1570.8 386.3C1512.7 373.7 1454.3 348.3 1396.2 348.3C1338 348.3 1280 373.7 1221.8 404.3C1163.7 435 1105.3 471 1047.2 453C989 435 931 363 872.8 339.5C814.7 316 756.3 341 698.2 382.3C640 423.7 582 481.3 523.8 488.5C465.7 495.7 407.3 452.3 349.2 416.3C291 380.3 233 351.7 174.8 359C116.7 366.3 58.3 409.7 29.2 431.3L0 453Z" fill="#528fe9"></path><path d="M0 962L29.2 942.2C58.3 922.3 116.7 882.7 174.8 875.5C233 868.3 291 893.7 349.2 899.2C407.3 904.7 465.7 890.3 523.8 876C582 861.7 640 847.3 698.2 834.7C756.3 822 814.7 811 872.8 825.3C931 839.7 989 879.3 1047.2 893.8C1105.3 908.3 1163.7 897.7 1221.8 892.3C1280 887 1338 887 1396.2 887C1454.3 887 1512.7 887 1570.8 894.2C1629 901.3 1687 915.7 1745.2 931.8C1803.3 948 1861.7 966 1890.8 975L1920 984L1920 777L1890.8 782.3C1861.7 787.7 1803.3 798.3 1745.2 789.3C1687 780.3 1629 751.7 1570.8 739C1512.7 726.3 1454.3 729.7 1396.2 731.3C1338 733 1280 733 1221.8 729.5C1163.7 726 1105.3 719 1047.2 701C989 683 931 654 872.8 661.2C814.7 668.3 756.3 711.7 698.2 738.7C640 765.7 582 776.3 523.8 778.2C465.7 780 407.3 773 349.2 758.7C291 744.3 233 722.7 174.8 726.2C116.7 729.7 58.3 758.3 29.2 772.7L0 787Z" fill="#467bcc"></path><path d="M0 1081L29.2 1081C58.3 1081 116.7 1081 174.8 1081C233 1081 291 1081 349.2 1081C407.3 1081 465.7 1081 523.8 1081C582 1081 640 1081 698.2 1081C756.3 1081 814.7 1081 872.8 1081C931 1081 989 1081 1047.2 1081C1105.3 1081 1163.7 1081 1221.8 1081C1280 1081 1338 1081 1396.2 1081C1454.3 1081 1512.7 1081 1570.8 1081C1629 1081 1687 1081 1745.2 1081C1803.3 1081 1861.7 1081 1890.8 1081L1920 1081L1920 982L1890.8 973C1861.7 964 1803.3 946 1745.2 929.8C1687 913.7 1629 899.3 1570.8 892.2C1512.7 885 1454.3 885 1396.2 885C1338 885 1280 885 1221.8 890.3C1163.7 895.7 1105.3 906.3 1047.2 891.8C989 877.3 931 837.7 872.8 823.3C814.7 809 756.3 820 698.2 832.7C640 845.3 582 859.7 523.8 874C465.7 888.3 407.3 902.7 349.2 897.2C291 891.7 233 866.3 174.8 873.5C116.7 880.7 58.3 920.3 29.2 940.2L0 960Z" fill="#3a68af"></path></svg>