<svg id="visual" viewBox="0 0 1920 1080" width="1920" height="1080" xmlns="http://www.w3.org/2000/svg" xmlns:xlink="http://www.w3.org/1999/xlink" version="1.1"><path d="M0 314L29.2 339.2C58.3 364.3 116.7 414.7 174.8 420.2C233 425.7 291 386.3 349.2 375.7C407.3 365 465.7 383 523.8 361.3C582 339.7 640 278.3 698.2 236.8C756.3 195.3 814.7 173.7 872.8 202.5C931 231.3 989 310.7 1047.2 325.2C1105.3 339.7 1163.7 289.3 1221.8 265.8C1280 242.3 1338 245.7 1396.2 254.7C1454.3 263.7 1512.7 278.3 1570.8 274.8C1629 271.3 1687 249.7 1745.2 267.7C1803.3 285.7 1861.7 343.3 1890.8 372.2L1920 401L1920 0L1890.8 0C1861.7 0 1803.3 0 1745.2 0C1687 0 1629 0 1570.8 0C1512.7 0 1454.3 0 1396.2 0C1338 0 1280 0 1221.8 0C1163.7 0 1105.3 0 1047.2 0C989 0 931 0 872.8 0C814.7 0 756.3 0 698.2 0C640 0 582 0 523.8 0C465.7 0 407.3 0 349.2 0C291 0 233 0 174.8 0C116.7 0 58.3 0 29.2 0L0 0Z" fill="#1c1c1c"></path><path d="M0 433L29.2 467.2C58.3 501.3 116.7 569.7 174.8 569.7C233 569.7 291 501.3 349.2 496C407.3 490.7 465.7 548.3 523.8 535.7C582 523 640 440 698.2 400.3C756.3 360.7 814.7 364.3 872.8 387.8C931 411.3 989 454.7 1047.2 467.3C1105.3 480 1163.7 462 1221.8 438.5C1280 415 1338 386 1396.2 387.8C1454.3 389.7 1512.7 422.3 1570.8 435C1629 447.7 1687 440.3 1745.2 452.8C1803.3 465.3 1861.7 497.7 1890.8 513.8L1920 530L1920 399L1890.8 370.2C1861.7 341.3 1803.3 283.7 1745.2 265.7C1687 247.7 1629 269.3 1570.8 272.8C1512.7 276.3 1454.3 261.7 1396.2 252.7C1338 243.7 1280 240.3 1221.8 263.8C1163.7 287.3 1105.3 337.7 1047.2 323.2C989 308.7 931 229.3 872.8 200.5C814.7 171.7 756.3 193.3 698.2 234.8C640 276.3 582 337.7 523.8 359.3C465.7 381 407.3 363 349.2 373.7C291 384.3 233 423.7 174.8 418.2C116.7 412.7 58.3 362.3 29.2 337.2L0 312Z" fill="#2a2f35"></path><path d="M0 660L29.2 696C58.3 732 116.7 804 174.8 818.3C233 832.7 291 789.3 349.2 767.7C407.3 746 465.7 746 523.8 764C582 782 640 818 698.2 807.2C756.3 796.3 814.7 738.7 872.8 724.3C931 710 989 739 1047.2 764.3C1105.3 789.7 1163.7 811.3 1221.8 804.2C1280 797 1338 761 1396.2 757.3C1454.3 753.7 1512.7 782.3 1570.8 807.5C1629 832.7 1687 854.3 1745.2 843.5C1803.3 832.7 1861.7 789.3 1890.8 767.7L1920 746L1920 528L1890.8 511.8C1861.7 495.7 1803.3 463.3 1745.2 450.8C1687 438.3 1629 445.7 1570.8 433C1512.7 420.3 1454.3 387.7 1396.2 385.8C1338 384 1280 413 1221.8 436.5C1163.7 460 1105.3 478 1047.2 465.3C989 452.7 931 409.3 872.8 385.8C814.7 362.3 756.3 358.7 698.2 398.3C640 438 582 521 523.8 533.7C465.7 546.3 407.3 488.7 349.2 494C291 499.3 233 567.7 174.8 567.7C116.7 567.7 58.3 499.3 29.2 465.2L0 431Z" fill="#384450"></path><path d="M0 941L29.2 946.3C58.3 951.7 116.7 962.3 174.8 965.8C233 969.3 291 965.7 349.2 962C407.3 958.3 465.7 954.7 523.8 958.3C582 962 640 973 698.2 971.3C756.3 969.7 814.7 955.3 872.8 949.8C931 944.3 989 947.7 1047.2 953C1105.3 958.3 1163.7 965.7 1221.8 974.7C1280 983.7 1338 994.3 1396.2 989C1454.3 983.7 1512.7 962.3 1570.8 955.2C1629 948 1687 955 1745.2 965.7C1803.3 976.3 1861.7 990.7 1890.8 997.8L1920 1005L1920 744L1890.8 765.7C1861.7 787.3 1803.3 830.7 1745.2 841.5C1687 852.3 1629 830.7 1570.8 805.5C1512.7 780.3 1454.3 751.7 1396.2 755.3C1338 759 1280 795 1221.8 802.2C1163.7 809.3 1105.3 787.7 1047.2 762.3C989 737 931 708 872.8 722.3C814.7 736.7 756.3 794.3 698.2 805.2C640 816 582 780 523.8 762C465.7 744 407.3 744 349.2 765.7C291 787.3 233 830.7 174.8 816.3C116.7 802 58.3 730 29.2 694L0 658Z" fill="#465a6c"></path><path d="M0 1081L29.2 1081C58.3 1081 116.7 1081 174.8 1081C233 1081 291 1081 349.2 1081C407.3 1081 465.7 1081 523.8 1081C582 1081 640 1081 698.2 1081C756.3 1081 814.7 1081 872.8 1081C931 1081 989 1081 1047.2 1081C1105.3 1081 1163.7 1081 1221.8 1081C1280 1081 1338 1081 1396.2 1081C1454.3 1081 1512.7 1081 1570.8 1081C1629 1081 1687 1081 1745.2 1081C1803.3 1081 1861.7 1081 1890.8 1081L1920 1081L1920 1003L1890.8 995.8C1861.7 988.7 1803.3 974.3 1745.2 963.7C1687 953 1629 946 1570.8 953.2C1512.7 960.3 1454.3 981.7 1396.2 987C1338 992.3 1280 981.7 1221.8 972.7C1163.7 963.7 1105.3 956.3 1047.2 951C989 945.7 931 942.3 872.8 947.8C814.7 953.3 756.3 967.7 698.2 969.3C640 971 582 960 523.8 956.3C465.7 952.7 407.3 956.3 349.2 960C291 963.7 233 967.3 174.8 963.8C116.7 960.3 58.3 949.7 29.2 944.3L0 939Z" fill="#54708a"></path></svg>